# xmcd
#
# Track frame offsets:
#  150
#  9167
#  20614
#  29887
#  41804
#  52755
#  65552
#  75994
#  88586
#  99314
#  112846
#  125332
#  138710
#  151765
#  160872
#  173223
#  183347
#  194794
#  206124
#  220100
#  231641
#  245365
#  256282
#  268250
#  278358
#  289960
#  302069
#  313449
#
# Disc length: 4334 seconds
#
# Revision: 0
# Processed by: cddbd v1.4PL0 Copyright (c) Steve Scherf et al.
# Submitted via: AltoMP3_Maker 3.0
#
DISCID=9510ec1c
DTITLE=Jimmy Martin - 50 Golden Years
DYEAR=1900
DGENRE=
TTITLE0=Save It! Save It! 
TTITLE1=Sunny Side Of The Mountain
TTITLE2=I Can, I Will, I Do Believe
TTITLE3=Drink Up And Go Home
TTITLE4=I Cried Again
TTITLE5=Future On Ice
TTITLE6=Hi-De Diddle
TTITLE7=Freeborn Man
TTITLE8=My Walking Shoes
TTITLE9=I Like To Hear 'Em Preach It
TTITLE10=That's How I Can Count On You
TTITLE11=Widow Maker
TTITLE12=You Don't Know My Mind
TTITLE13=Rock Hearts
TTITLE14=The Last Song
TTITLE15=Home Run Man
TTITLE16=Ocean of Diamonds
TTITLE17=Hit Parade of Love
TTITLE18=Chattanooga Dog
TTITLE19=20/20 Vision
TTITLE20=God Guide Our Leader's Hands
TTITLE21=Hold Whatcha Got
TTITLE22=Mr. Engineer
TTITLE23=Skip, Hop and Wobble
TTITLE24=Prayer Bell Of Heaven
TTITLE25=I'll Never Take No For An Answer
TTITLE26=Don't Cry To Me
TTITLE27=Old Fashioned Christmas
EXTD=
EXTT0=
EXTT1=
EXTT2=
EXTT3=
EXTT4=
EXTT5=
EXTT6=
EXTT7=
EXTT8=
EXTT9=
EXTT10=
EXTT11=
EXTT12=
EXTT13=
EXTT14=
EXTT15=
EXTT16=
EXTT17=
EXTT18=
EXTT19=
EXTT20=
EXTT21=
EXTT22=
EXTT23=
EXTT24=
EXTT25=
EXTT26=
EXTT27=
PLAYORDER=
